<mxfile host="app.diagrams.net" modified="2024-11-22T18:19:05.166Z" agent="Mozilla/5.0 (Windows NT 10.0; Win64; x64) AppleWebKit/537.36 (KHTML, like Gecko) Chrome/131.0.0.0 Safari/537.36" etag="kTTai6rhfIh9fy38enS2" version="24.5.4" type="device">
  <diagram name="Page-1" id="d5UIihBK4diYEhw17xAe">
    <mxGraphModel dx="2359" dy="785" grid="1" gridSize="10" guides="1" tooltips="1" connect="1" arrows="1" fold="1" page="1" pageScale="1" pageWidth="850" pageHeight="1100" math="0" shadow="0">
      <root>
        <mxCell id="0" />
        <mxCell id="1" parent="0" />
        <mxCell id="cb20dtoZO0qenrzHvaOk-69" value="YES" style="edgeStyle=orthogonalEdgeStyle;rounded=0;orthogonalLoop=1;jettySize=auto;html=1;entryX=0.5;entryY=0;entryDx=0;entryDy=0;" edge="1" parent="1" source="cb20dtoZO0qenrzHvaOk-2" target="cb20dtoZO0qenrzHvaOk-70">
          <mxGeometry relative="1" as="geometry">
            <mxPoint x="-25" y="320" as="targetPoint" />
          </mxGeometry>
        </mxCell>
        <mxCell id="cb20dtoZO0qenrzHvaOk-90" style="edgeStyle=orthogonalEdgeStyle;rounded=0;orthogonalLoop=1;jettySize=auto;html=1;entryX=0;entryY=0.5;entryDx=0;entryDy=0;" edge="1" parent="1" source="cb20dtoZO0qenrzHvaOk-2" target="cb20dtoZO0qenrzHvaOk-75">
          <mxGeometry relative="1" as="geometry">
            <Array as="points">
              <mxPoint x="-300" y="147" />
              <mxPoint x="-300" y="730" />
            </Array>
          </mxGeometry>
        </mxCell>
        <mxCell id="cb20dtoZO0qenrzHvaOk-91" value="NO" style="edgeLabel;html=1;align=center;verticalAlign=middle;resizable=0;points=[];" vertex="1" connectable="0" parent="cb20dtoZO0qenrzHvaOk-90">
          <mxGeometry x="-0.8778" y="1" relative="1" as="geometry">
            <mxPoint as="offset" />
          </mxGeometry>
        </mxCell>
        <mxCell id="cb20dtoZO0qenrzHvaOk-2" value="&lt;font style=&quot;font-size: 16px;&quot;&gt;debt[i] - pay[j] &amp;gt;= 0?&lt;/font&gt;" style="rhombus;whiteSpace=wrap;html=1;" vertex="1" parent="1">
          <mxGeometry x="-110" y="61.5" width="170" height="170" as="geometry" />
        </mxCell>
        <mxCell id="cb20dtoZO0qenrzHvaOk-4" value="" style="shape=table;startSize=0;container=1;collapsible=0;childLayout=tableLayout;fontSize=16;fillColor=#f8cecc;strokeColor=#b85450;" vertex="1" parent="1">
          <mxGeometry x="470" y="120" width="340" height="53" as="geometry" />
        </mxCell>
        <mxCell id="cb20dtoZO0qenrzHvaOk-5" value="" style="shape=tableRow;horizontal=0;startSize=0;swimlaneHead=0;swimlaneBody=0;strokeColor=#b85450;top=0;left=0;bottom=0;right=0;collapsible=0;dropTarget=0;fillColor=#f8cecc;points=[[0,0.5],[1,0.5]];portConstraint=eastwest;fontSize=16;" vertex="1" parent="cb20dtoZO0qenrzHvaOk-4">
          <mxGeometry width="340" height="27" as="geometry" />
        </mxCell>
        <mxCell id="cb20dtoZO0qenrzHvaOk-6" value="debt" style="shape=partialRectangle;html=1;whiteSpace=wrap;connectable=0;strokeColor=#b85450;overflow=hidden;fillColor=#f8cecc;top=0;left=0;bottom=0;right=0;pointerEvents=1;fontSize=16;" vertex="1" parent="cb20dtoZO0qenrzHvaOk-5">
          <mxGeometry width="113" height="27" as="geometry">
            <mxRectangle width="113" height="27" as="alternateBounds" />
          </mxGeometry>
        </mxCell>
        <mxCell id="cb20dtoZO0qenrzHvaOk-7" value="month" style="shape=partialRectangle;html=1;whiteSpace=wrap;connectable=0;strokeColor=#b85450;overflow=hidden;fillColor=#f8cecc;top=0;left=0;bottom=0;right=0;pointerEvents=1;fontSize=16;" vertex="1" parent="cb20dtoZO0qenrzHvaOk-5">
          <mxGeometry x="113" width="114" height="27" as="geometry">
            <mxRectangle width="114" height="27" as="alternateBounds" />
          </mxGeometry>
        </mxCell>
        <mxCell id="cb20dtoZO0qenrzHvaOk-8" value="year&lt;span style=&quot;white-space: pre;&quot;&gt;&#x9;&lt;/span&gt;" style="shape=partialRectangle;html=1;whiteSpace=wrap;connectable=0;strokeColor=#b85450;overflow=hidden;fillColor=#f8cecc;top=0;left=0;bottom=0;right=0;pointerEvents=1;fontSize=16;" vertex="1" parent="cb20dtoZO0qenrzHvaOk-5">
          <mxGeometry x="227" width="113" height="27" as="geometry">
            <mxRectangle width="113" height="27" as="alternateBounds" />
          </mxGeometry>
        </mxCell>
        <mxCell id="cb20dtoZO0qenrzHvaOk-9" value="" style="shape=tableRow;horizontal=0;startSize=0;swimlaneHead=0;swimlaneBody=0;strokeColor=#b85450;top=0;left=0;bottom=0;right=0;collapsible=0;dropTarget=0;fillColor=#f8cecc;points=[[0,0.5],[1,0.5]];portConstraint=eastwest;fontSize=16;" vertex="1" parent="cb20dtoZO0qenrzHvaOk-4">
          <mxGeometry y="27" width="340" height="26" as="geometry" />
        </mxCell>
        <mxCell id="cb20dtoZO0qenrzHvaOk-10" value="200" style="shape=partialRectangle;html=1;whiteSpace=wrap;connectable=0;strokeColor=#b85450;overflow=hidden;fillColor=#f8cecc;top=0;left=0;bottom=0;right=0;pointerEvents=1;fontSize=16;" vertex="1" parent="cb20dtoZO0qenrzHvaOk-9">
          <mxGeometry width="113" height="26" as="geometry">
            <mxRectangle width="113" height="26" as="alternateBounds" />
          </mxGeometry>
        </mxCell>
        <mxCell id="cb20dtoZO0qenrzHvaOk-11" value="end 09" style="shape=partialRectangle;html=1;whiteSpace=wrap;connectable=0;strokeColor=#b85450;overflow=hidden;fillColor=#f8cecc;top=0;left=0;bottom=0;right=0;pointerEvents=1;fontSize=16;" vertex="1" parent="cb20dtoZO0qenrzHvaOk-9">
          <mxGeometry x="113" width="114" height="26" as="geometry">
            <mxRectangle width="114" height="26" as="alternateBounds" />
          </mxGeometry>
        </mxCell>
        <mxCell id="cb20dtoZO0qenrzHvaOk-12" value="2024" style="shape=partialRectangle;html=1;whiteSpace=wrap;connectable=0;strokeColor=#b85450;overflow=hidden;fillColor=#f8cecc;top=0;left=0;bottom=0;right=0;pointerEvents=1;fontSize=16;" vertex="1" parent="cb20dtoZO0qenrzHvaOk-9">
          <mxGeometry x="227" width="113" height="26" as="geometry">
            <mxRectangle width="113" height="26" as="alternateBounds" />
          </mxGeometry>
        </mxCell>
        <mxCell id="cb20dtoZO0qenrzHvaOk-17" value="" style="shape=table;startSize=0;container=1;collapsible=0;childLayout=tableLayout;fontSize=16;fillColor=#f8cecc;strokeColor=#b85450;" vertex="1" parent="1">
          <mxGeometry x="470" y="200" width="340" height="53" as="geometry" />
        </mxCell>
        <mxCell id="cb20dtoZO0qenrzHvaOk-18" value="" style="shape=tableRow;horizontal=0;startSize=0;swimlaneHead=0;swimlaneBody=0;strokeColor=#b85450;top=0;left=0;bottom=0;right=0;collapsible=0;dropTarget=0;fillColor=#f8cecc;points=[[0,0.5],[1,0.5]];portConstraint=eastwest;fontSize=16;" vertex="1" parent="cb20dtoZO0qenrzHvaOk-17">
          <mxGeometry width="340" height="27" as="geometry" />
        </mxCell>
        <mxCell id="cb20dtoZO0qenrzHvaOk-19" value="debt" style="shape=partialRectangle;html=1;whiteSpace=wrap;connectable=0;strokeColor=#b85450;overflow=hidden;fillColor=#f8cecc;top=0;left=0;bottom=0;right=0;pointerEvents=1;fontSize=16;" vertex="1" parent="cb20dtoZO0qenrzHvaOk-18">
          <mxGeometry width="113" height="27" as="geometry">
            <mxRectangle width="113" height="27" as="alternateBounds" />
          </mxGeometry>
        </mxCell>
        <mxCell id="cb20dtoZO0qenrzHvaOk-20" value="month" style="shape=partialRectangle;html=1;whiteSpace=wrap;connectable=0;strokeColor=#b85450;overflow=hidden;fillColor=#f8cecc;top=0;left=0;bottom=0;right=0;pointerEvents=1;fontSize=16;" vertex="1" parent="cb20dtoZO0qenrzHvaOk-18">
          <mxGeometry x="113" width="114" height="27" as="geometry">
            <mxRectangle width="114" height="27" as="alternateBounds" />
          </mxGeometry>
        </mxCell>
        <mxCell id="cb20dtoZO0qenrzHvaOk-21" value="year&lt;span style=&quot;white-space: pre;&quot;&gt;&#x9;&lt;/span&gt;" style="shape=partialRectangle;html=1;whiteSpace=wrap;connectable=0;strokeColor=#b85450;overflow=hidden;fillColor=#f8cecc;top=0;left=0;bottom=0;right=0;pointerEvents=1;fontSize=16;" vertex="1" parent="cb20dtoZO0qenrzHvaOk-18">
          <mxGeometry x="227" width="113" height="27" as="geometry">
            <mxRectangle width="113" height="27" as="alternateBounds" />
          </mxGeometry>
        </mxCell>
        <mxCell id="cb20dtoZO0qenrzHvaOk-22" value="" style="shape=tableRow;horizontal=0;startSize=0;swimlaneHead=0;swimlaneBody=0;strokeColor=#b85450;top=0;left=0;bottom=0;right=0;collapsible=0;dropTarget=0;fillColor=#f8cecc;points=[[0,0.5],[1,0.5]];portConstraint=eastwest;fontSize=16;" vertex="1" parent="cb20dtoZO0qenrzHvaOk-17">
          <mxGeometry y="27" width="340" height="26" as="geometry" />
        </mxCell>
        <mxCell id="cb20dtoZO0qenrzHvaOk-23" value="1000" style="shape=partialRectangle;html=1;whiteSpace=wrap;connectable=0;strokeColor=#b85450;overflow=hidden;fillColor=#f8cecc;top=0;left=0;bottom=0;right=0;pointerEvents=1;fontSize=16;" vertex="1" parent="cb20dtoZO0qenrzHvaOk-22">
          <mxGeometry width="113" height="26" as="geometry">
            <mxRectangle width="113" height="26" as="alternateBounds" />
          </mxGeometry>
        </mxCell>
        <mxCell id="cb20dtoZO0qenrzHvaOk-24" value="end 10" style="shape=partialRectangle;html=1;whiteSpace=wrap;connectable=0;strokeColor=#b85450;overflow=hidden;fillColor=#f8cecc;top=0;left=0;bottom=0;right=0;pointerEvents=1;fontSize=16;" vertex="1" parent="cb20dtoZO0qenrzHvaOk-22">
          <mxGeometry x="113" width="114" height="26" as="geometry">
            <mxRectangle width="114" height="26" as="alternateBounds" />
          </mxGeometry>
        </mxCell>
        <mxCell id="cb20dtoZO0qenrzHvaOk-25" value="2024" style="shape=partialRectangle;html=1;whiteSpace=wrap;connectable=0;strokeColor=#b85450;overflow=hidden;fillColor=#f8cecc;top=0;left=0;bottom=0;right=0;pointerEvents=1;fontSize=16;" vertex="1" parent="cb20dtoZO0qenrzHvaOk-22">
          <mxGeometry x="227" width="113" height="26" as="geometry">
            <mxRectangle width="113" height="26" as="alternateBounds" />
          </mxGeometry>
        </mxCell>
        <mxCell id="cb20dtoZO0qenrzHvaOk-26" value="" style="shape=table;startSize=0;container=1;collapsible=0;childLayout=tableLayout;fontSize=16;fillColor=#d5e8d4;strokeColor=#82b366;" vertex="1" parent="1">
          <mxGeometry x="470" y="370" width="340" height="53" as="geometry" />
        </mxCell>
        <mxCell id="cb20dtoZO0qenrzHvaOk-27" value="" style="shape=tableRow;horizontal=0;startSize=0;swimlaneHead=0;swimlaneBody=0;strokeColor=#82b366;top=0;left=0;bottom=0;right=0;collapsible=0;dropTarget=0;fillColor=#d5e8d4;points=[[0,0.5],[1,0.5]];portConstraint=eastwest;fontSize=16;" vertex="1" parent="cb20dtoZO0qenrzHvaOk-26">
          <mxGeometry width="340" height="27" as="geometry" />
        </mxCell>
        <mxCell id="cb20dtoZO0qenrzHvaOk-28" value="pay" style="shape=partialRectangle;html=1;whiteSpace=wrap;connectable=0;strokeColor=#82b366;overflow=hidden;fillColor=#d5e8d4;top=0;left=0;bottom=0;right=0;pointerEvents=1;fontSize=16;" vertex="1" parent="cb20dtoZO0qenrzHvaOk-27">
          <mxGeometry width="113" height="27" as="geometry">
            <mxRectangle width="113" height="27" as="alternateBounds" />
          </mxGeometry>
        </mxCell>
        <mxCell id="cb20dtoZO0qenrzHvaOk-29" value="month" style="shape=partialRectangle;html=1;whiteSpace=wrap;connectable=0;strokeColor=#82b366;overflow=hidden;fillColor=#d5e8d4;top=0;left=0;bottom=0;right=0;pointerEvents=1;fontSize=16;" vertex="1" parent="cb20dtoZO0qenrzHvaOk-27">
          <mxGeometry x="113" width="114" height="27" as="geometry">
            <mxRectangle width="114" height="27" as="alternateBounds" />
          </mxGeometry>
        </mxCell>
        <mxCell id="cb20dtoZO0qenrzHvaOk-30" value="year&lt;span style=&quot;white-space: pre;&quot;&gt;&#x9;&lt;/span&gt;" style="shape=partialRectangle;html=1;whiteSpace=wrap;connectable=0;strokeColor=#82b366;overflow=hidden;fillColor=#d5e8d4;top=0;left=0;bottom=0;right=0;pointerEvents=1;fontSize=16;" vertex="1" parent="cb20dtoZO0qenrzHvaOk-27">
          <mxGeometry x="227" width="113" height="27" as="geometry">
            <mxRectangle width="113" height="27" as="alternateBounds" />
          </mxGeometry>
        </mxCell>
        <mxCell id="cb20dtoZO0qenrzHvaOk-31" value="" style="shape=tableRow;horizontal=0;startSize=0;swimlaneHead=0;swimlaneBody=0;strokeColor=#82b366;top=0;left=0;bottom=0;right=0;collapsible=0;dropTarget=0;fillColor=#d5e8d4;points=[[0,0.5],[1,0.5]];portConstraint=eastwest;fontSize=16;" vertex="1" parent="cb20dtoZO0qenrzHvaOk-26">
          <mxGeometry y="27" width="340" height="26" as="geometry" />
        </mxCell>
        <mxCell id="cb20dtoZO0qenrzHvaOk-32" value="250" style="shape=partialRectangle;html=1;whiteSpace=wrap;connectable=0;strokeColor=#82b366;overflow=hidden;fillColor=#d5e8d4;top=0;left=0;bottom=0;right=0;pointerEvents=1;fontSize=16;" vertex="1" parent="cb20dtoZO0qenrzHvaOk-31">
          <mxGeometry width="113" height="26" as="geometry">
            <mxRectangle width="113" height="26" as="alternateBounds" />
          </mxGeometry>
        </mxCell>
        <mxCell id="cb20dtoZO0qenrzHvaOk-33" value="22/11" style="shape=partialRectangle;html=1;whiteSpace=wrap;connectable=0;strokeColor=#82b366;overflow=hidden;fillColor=#d5e8d4;top=0;left=0;bottom=0;right=0;pointerEvents=1;fontSize=16;" vertex="1" parent="cb20dtoZO0qenrzHvaOk-31">
          <mxGeometry x="113" width="114" height="26" as="geometry">
            <mxRectangle width="114" height="26" as="alternateBounds" />
          </mxGeometry>
        </mxCell>
        <mxCell id="cb20dtoZO0qenrzHvaOk-34" value="2024" style="shape=partialRectangle;html=1;whiteSpace=wrap;connectable=0;strokeColor=#82b366;overflow=hidden;fillColor=#d5e8d4;top=0;left=0;bottom=0;right=0;pointerEvents=1;fontSize=16;" vertex="1" parent="cb20dtoZO0qenrzHvaOk-31">
          <mxGeometry x="227" width="113" height="26" as="geometry">
            <mxRectangle width="113" height="26" as="alternateBounds" />
          </mxGeometry>
        </mxCell>
        <mxCell id="cb20dtoZO0qenrzHvaOk-35" value="" style="shape=table;startSize=0;container=1;collapsible=0;childLayout=tableLayout;fontSize=16;fillColor=#d5e8d4;strokeColor=#82b366;" vertex="1" parent="1">
          <mxGeometry x="470" y="450" width="340" height="53" as="geometry" />
        </mxCell>
        <mxCell id="cb20dtoZO0qenrzHvaOk-36" value="" style="shape=tableRow;horizontal=0;startSize=0;swimlaneHead=0;swimlaneBody=0;strokeColor=#82b366;top=0;left=0;bottom=0;right=0;collapsible=0;dropTarget=0;fillColor=#d5e8d4;points=[[0,0.5],[1,0.5]];portConstraint=eastwest;fontSize=16;" vertex="1" parent="cb20dtoZO0qenrzHvaOk-35">
          <mxGeometry width="340" height="27" as="geometry" />
        </mxCell>
        <mxCell id="cb20dtoZO0qenrzHvaOk-37" value="pay" style="shape=partialRectangle;html=1;whiteSpace=wrap;connectable=0;strokeColor=#82b366;overflow=hidden;fillColor=#d5e8d4;top=0;left=0;bottom=0;right=0;pointerEvents=1;fontSize=16;" vertex="1" parent="cb20dtoZO0qenrzHvaOk-36">
          <mxGeometry width="113" height="27" as="geometry">
            <mxRectangle width="113" height="27" as="alternateBounds" />
          </mxGeometry>
        </mxCell>
        <mxCell id="cb20dtoZO0qenrzHvaOk-38" value="month" style="shape=partialRectangle;html=1;whiteSpace=wrap;connectable=0;strokeColor=#82b366;overflow=hidden;fillColor=#d5e8d4;top=0;left=0;bottom=0;right=0;pointerEvents=1;fontSize=16;" vertex="1" parent="cb20dtoZO0qenrzHvaOk-36">
          <mxGeometry x="113" width="114" height="27" as="geometry">
            <mxRectangle width="114" height="27" as="alternateBounds" />
          </mxGeometry>
        </mxCell>
        <mxCell id="cb20dtoZO0qenrzHvaOk-39" value="year&lt;span style=&quot;white-space: pre;&quot;&gt;&#x9;&lt;/span&gt;" style="shape=partialRectangle;html=1;whiteSpace=wrap;connectable=0;strokeColor=#82b366;overflow=hidden;fillColor=#d5e8d4;top=0;left=0;bottom=0;right=0;pointerEvents=1;fontSize=16;" vertex="1" parent="cb20dtoZO0qenrzHvaOk-36">
          <mxGeometry x="227" width="113" height="27" as="geometry">
            <mxRectangle width="113" height="27" as="alternateBounds" />
          </mxGeometry>
        </mxCell>
        <mxCell id="cb20dtoZO0qenrzHvaOk-40" value="" style="shape=tableRow;horizontal=0;startSize=0;swimlaneHead=0;swimlaneBody=0;strokeColor=#82b366;top=0;left=0;bottom=0;right=0;collapsible=0;dropTarget=0;fillColor=#d5e8d4;points=[[0,0.5],[1,0.5]];portConstraint=eastwest;fontSize=16;" vertex="1" parent="cb20dtoZO0qenrzHvaOk-35">
          <mxGeometry y="27" width="340" height="26" as="geometry" />
        </mxCell>
        <mxCell id="cb20dtoZO0qenrzHvaOk-41" value="250" style="shape=partialRectangle;html=1;whiteSpace=wrap;connectable=0;strokeColor=#82b366;overflow=hidden;fillColor=#d5e8d4;top=0;left=0;bottom=0;right=0;pointerEvents=1;fontSize=16;" vertex="1" parent="cb20dtoZO0qenrzHvaOk-40">
          <mxGeometry width="113" height="26" as="geometry">
            <mxRectangle width="113" height="26" as="alternateBounds" />
          </mxGeometry>
        </mxCell>
        <mxCell id="cb20dtoZO0qenrzHvaOk-42" value="10/10" style="shape=partialRectangle;html=1;whiteSpace=wrap;connectable=0;strokeColor=#82b366;overflow=hidden;fillColor=#d5e8d4;top=0;left=0;bottom=0;right=0;pointerEvents=1;fontSize=16;" vertex="1" parent="cb20dtoZO0qenrzHvaOk-40">
          <mxGeometry x="113" width="114" height="26" as="geometry">
            <mxRectangle width="114" height="26" as="alternateBounds" />
          </mxGeometry>
        </mxCell>
        <mxCell id="cb20dtoZO0qenrzHvaOk-43" value="2024" style="shape=partialRectangle;html=1;whiteSpace=wrap;connectable=0;strokeColor=#82b366;overflow=hidden;fillColor=#d5e8d4;top=0;left=0;bottom=0;right=0;pointerEvents=1;fontSize=16;" vertex="1" parent="cb20dtoZO0qenrzHvaOk-40">
          <mxGeometry x="227" width="113" height="26" as="geometry">
            <mxRectangle width="113" height="26" as="alternateBounds" />
          </mxGeometry>
        </mxCell>
        <mxCell id="cb20dtoZO0qenrzHvaOk-44" value="" style="shape=table;startSize=0;container=1;collapsible=0;childLayout=tableLayout;fontSize=16;fillColor=#d5e8d4;strokeColor=#82b366;" vertex="1" parent="1">
          <mxGeometry x="470" y="530" width="340" height="53" as="geometry" />
        </mxCell>
        <mxCell id="cb20dtoZO0qenrzHvaOk-45" value="" style="shape=tableRow;horizontal=0;startSize=0;swimlaneHead=0;swimlaneBody=0;strokeColor=#82b366;top=0;left=0;bottom=0;right=0;collapsible=0;dropTarget=0;fillColor=#d5e8d4;points=[[0,0.5],[1,0.5]];portConstraint=eastwest;fontSize=16;" vertex="1" parent="cb20dtoZO0qenrzHvaOk-44">
          <mxGeometry width="340" height="27" as="geometry" />
        </mxCell>
        <mxCell id="cb20dtoZO0qenrzHvaOk-46" value="pay" style="shape=partialRectangle;html=1;whiteSpace=wrap;connectable=0;strokeColor=#82b366;overflow=hidden;fillColor=#d5e8d4;top=0;left=0;bottom=0;right=0;pointerEvents=1;fontSize=16;" vertex="1" parent="cb20dtoZO0qenrzHvaOk-45">
          <mxGeometry width="113" height="27" as="geometry">
            <mxRectangle width="113" height="27" as="alternateBounds" />
          </mxGeometry>
        </mxCell>
        <mxCell id="cb20dtoZO0qenrzHvaOk-47" value="month" style="shape=partialRectangle;html=1;whiteSpace=wrap;connectable=0;strokeColor=#82b366;overflow=hidden;fillColor=#d5e8d4;top=0;left=0;bottom=0;right=0;pointerEvents=1;fontSize=16;" vertex="1" parent="cb20dtoZO0qenrzHvaOk-45">
          <mxGeometry x="113" width="114" height="27" as="geometry">
            <mxRectangle width="114" height="27" as="alternateBounds" />
          </mxGeometry>
        </mxCell>
        <mxCell id="cb20dtoZO0qenrzHvaOk-48" value="year&lt;span style=&quot;white-space: pre;&quot;&gt;&#x9;&lt;/span&gt;" style="shape=partialRectangle;html=1;whiteSpace=wrap;connectable=0;strokeColor=#82b366;overflow=hidden;fillColor=#d5e8d4;top=0;left=0;bottom=0;right=0;pointerEvents=1;fontSize=16;" vertex="1" parent="cb20dtoZO0qenrzHvaOk-45">
          <mxGeometry x="227" width="113" height="27" as="geometry">
            <mxRectangle width="113" height="27" as="alternateBounds" />
          </mxGeometry>
        </mxCell>
        <mxCell id="cb20dtoZO0qenrzHvaOk-49" value="" style="shape=tableRow;horizontal=0;startSize=0;swimlaneHead=0;swimlaneBody=0;strokeColor=#82b366;top=0;left=0;bottom=0;right=0;collapsible=0;dropTarget=0;fillColor=#d5e8d4;points=[[0,0.5],[1,0.5]];portConstraint=eastwest;fontSize=16;" vertex="1" parent="cb20dtoZO0qenrzHvaOk-44">
          <mxGeometry y="27" width="340" height="26" as="geometry" />
        </mxCell>
        <mxCell id="cb20dtoZO0qenrzHvaOk-50" value="1000" style="shape=partialRectangle;html=1;whiteSpace=wrap;connectable=0;strokeColor=#82b366;overflow=hidden;fillColor=#d5e8d4;top=0;left=0;bottom=0;right=0;pointerEvents=1;fontSize=16;" vertex="1" parent="cb20dtoZO0qenrzHvaOk-49">
          <mxGeometry width="113" height="26" as="geometry">
            <mxRectangle width="113" height="26" as="alternateBounds" />
          </mxGeometry>
        </mxCell>
        <mxCell id="cb20dtoZO0qenrzHvaOk-51" value="20/12" style="shape=partialRectangle;html=1;whiteSpace=wrap;connectable=0;strokeColor=#82b366;overflow=hidden;fillColor=#d5e8d4;top=0;left=0;bottom=0;right=0;pointerEvents=1;fontSize=16;" vertex="1" parent="cb20dtoZO0qenrzHvaOk-49">
          <mxGeometry x="113" width="114" height="26" as="geometry">
            <mxRectangle width="114" height="26" as="alternateBounds" />
          </mxGeometry>
        </mxCell>
        <mxCell id="cb20dtoZO0qenrzHvaOk-52" value="2024" style="shape=partialRectangle;html=1;whiteSpace=wrap;connectable=0;strokeColor=#82b366;overflow=hidden;fillColor=#d5e8d4;top=0;left=0;bottom=0;right=0;pointerEvents=1;fontSize=16;" vertex="1" parent="cb20dtoZO0qenrzHvaOk-49">
          <mxGeometry x="227" width="113" height="26" as="geometry">
            <mxRectangle width="113" height="26" as="alternateBounds" />
          </mxGeometry>
        </mxCell>
        <mxCell id="cb20dtoZO0qenrzHvaOk-53" value="" style="shape=table;startSize=0;container=1;collapsible=0;childLayout=tableLayout;fontSize=16;fillColor=#d5e8d4;strokeColor=#82b366;" vertex="1" parent="1">
          <mxGeometry x="470" y="610" width="340" height="53" as="geometry" />
        </mxCell>
        <mxCell id="cb20dtoZO0qenrzHvaOk-54" value="" style="shape=tableRow;horizontal=0;startSize=0;swimlaneHead=0;swimlaneBody=0;strokeColor=#82b366;top=0;left=0;bottom=0;right=0;collapsible=0;dropTarget=0;fillColor=#d5e8d4;points=[[0,0.5],[1,0.5]];portConstraint=eastwest;fontSize=16;" vertex="1" parent="cb20dtoZO0qenrzHvaOk-53">
          <mxGeometry width="340" height="27" as="geometry" />
        </mxCell>
        <mxCell id="cb20dtoZO0qenrzHvaOk-55" value="pay" style="shape=partialRectangle;html=1;whiteSpace=wrap;connectable=0;strokeColor=#82b366;overflow=hidden;fillColor=#d5e8d4;top=0;left=0;bottom=0;right=0;pointerEvents=1;fontSize=16;" vertex="1" parent="cb20dtoZO0qenrzHvaOk-54">
          <mxGeometry width="113" height="27" as="geometry">
            <mxRectangle width="113" height="27" as="alternateBounds" />
          </mxGeometry>
        </mxCell>
        <mxCell id="cb20dtoZO0qenrzHvaOk-56" value="month" style="shape=partialRectangle;html=1;whiteSpace=wrap;connectable=0;strokeColor=#82b366;overflow=hidden;fillColor=#d5e8d4;top=0;left=0;bottom=0;right=0;pointerEvents=1;fontSize=16;" vertex="1" parent="cb20dtoZO0qenrzHvaOk-54">
          <mxGeometry x="113" width="114" height="27" as="geometry">
            <mxRectangle width="114" height="27" as="alternateBounds" />
          </mxGeometry>
        </mxCell>
        <mxCell id="cb20dtoZO0qenrzHvaOk-57" value="year&lt;span style=&quot;white-space: pre;&quot;&gt;&#x9;&lt;/span&gt;" style="shape=partialRectangle;html=1;whiteSpace=wrap;connectable=0;strokeColor=#82b366;overflow=hidden;fillColor=#d5e8d4;top=0;left=0;bottom=0;right=0;pointerEvents=1;fontSize=16;" vertex="1" parent="cb20dtoZO0qenrzHvaOk-54">
          <mxGeometry x="227" width="113" height="27" as="geometry">
            <mxRectangle width="113" height="27" as="alternateBounds" />
          </mxGeometry>
        </mxCell>
        <mxCell id="cb20dtoZO0qenrzHvaOk-58" value="" style="shape=tableRow;horizontal=0;startSize=0;swimlaneHead=0;swimlaneBody=0;strokeColor=#82b366;top=0;left=0;bottom=0;right=0;collapsible=0;dropTarget=0;fillColor=#d5e8d4;points=[[0,0.5],[1,0.5]];portConstraint=eastwest;fontSize=16;" vertex="1" parent="cb20dtoZO0qenrzHvaOk-53">
          <mxGeometry y="27" width="340" height="26" as="geometry" />
        </mxCell>
        <mxCell id="cb20dtoZO0qenrzHvaOk-59" value="500" style="shape=partialRectangle;html=1;whiteSpace=wrap;connectable=0;strokeColor=#82b366;overflow=hidden;fillColor=#d5e8d4;top=0;left=0;bottom=0;right=0;pointerEvents=1;fontSize=16;" vertex="1" parent="cb20dtoZO0qenrzHvaOk-58">
          <mxGeometry width="113" height="26" as="geometry">
            <mxRectangle width="113" height="26" as="alternateBounds" />
          </mxGeometry>
        </mxCell>
        <mxCell id="cb20dtoZO0qenrzHvaOk-60" value="15/01" style="shape=partialRectangle;html=1;whiteSpace=wrap;connectable=0;strokeColor=#82b366;overflow=hidden;fillColor=#d5e8d4;top=0;left=0;bottom=0;right=0;pointerEvents=1;fontSize=16;" vertex="1" parent="cb20dtoZO0qenrzHvaOk-58">
          <mxGeometry x="113" width="114" height="26" as="geometry">
            <mxRectangle width="114" height="26" as="alternateBounds" />
          </mxGeometry>
        </mxCell>
        <mxCell id="cb20dtoZO0qenrzHvaOk-61" value="2025" style="shape=partialRectangle;html=1;whiteSpace=wrap;connectable=0;strokeColor=#82b366;overflow=hidden;fillColor=#d5e8d4;top=0;left=0;bottom=0;right=0;pointerEvents=1;fontSize=16;" vertex="1" parent="cb20dtoZO0qenrzHvaOk-58">
          <mxGeometry x="227" width="113" height="26" as="geometry">
            <mxRectangle width="113" height="26" as="alternateBounds" />
          </mxGeometry>
        </mxCell>
        <mxCell id="cb20dtoZO0qenrzHvaOk-62" value="[0]" style="text;html=1;align=center;verticalAlign=middle;whiteSpace=wrap;rounded=0;fontSize=23;fontStyle=1" vertex="1" parent="1">
          <mxGeometry x="810" y="130" width="60" height="30" as="geometry" />
        </mxCell>
        <mxCell id="cb20dtoZO0qenrzHvaOk-63" value="[1]" style="text;html=1;align=center;verticalAlign=middle;whiteSpace=wrap;rounded=0;fontSize=23;fontStyle=1" vertex="1" parent="1">
          <mxGeometry x="810" y="211.5" width="60" height="30" as="geometry" />
        </mxCell>
        <mxCell id="cb20dtoZO0qenrzHvaOk-64" value="[0]" style="text;html=1;align=center;verticalAlign=middle;whiteSpace=wrap;rounded=0;fontSize=23;fontStyle=1" vertex="1" parent="1">
          <mxGeometry x="810" y="380" width="60" height="30" as="geometry" />
        </mxCell>
        <mxCell id="cb20dtoZO0qenrzHvaOk-65" value="[1]" style="text;html=1;align=center;verticalAlign=middle;whiteSpace=wrap;rounded=0;fontSize=23;fontStyle=1" vertex="1" parent="1">
          <mxGeometry x="810" y="460" width="60" height="30" as="geometry" />
        </mxCell>
        <mxCell id="cb20dtoZO0qenrzHvaOk-66" value="[2]" style="text;html=1;align=center;verticalAlign=middle;whiteSpace=wrap;rounded=0;fontSize=23;fontStyle=1" vertex="1" parent="1">
          <mxGeometry x="810" y="541.5" width="60" height="30" as="geometry" />
        </mxCell>
        <mxCell id="cb20dtoZO0qenrzHvaOk-67" value="[3]" style="text;html=1;align=center;verticalAlign=middle;whiteSpace=wrap;rounded=0;fontSize=23;fontStyle=1" vertex="1" parent="1">
          <mxGeometry x="810" y="621.5" width="60" height="30" as="geometry" />
        </mxCell>
        <mxCell id="cb20dtoZO0qenrzHvaOk-72" style="edgeStyle=orthogonalEdgeStyle;rounded=0;orthogonalLoop=1;jettySize=auto;html=1;entryX=0.5;entryY=0;entryDx=0;entryDy=0;" edge="1" parent="1" source="cb20dtoZO0qenrzHvaOk-70" target="cb20dtoZO0qenrzHvaOk-71">
          <mxGeometry relative="1" as="geometry" />
        </mxCell>
        <mxCell id="cb20dtoZO0qenrzHvaOk-70" value="&lt;font style=&quot;font-size: 16px;&quot;&gt;pay[j] * (totalDaysDifference)&lt;br&gt;totalCalcPay+=pay[j]&lt;br&gt;debt[i] - pay[j]&lt;br&gt;j++&lt;/font&gt;" style="shape=step;perimeter=stepPerimeter;whiteSpace=wrap;html=1;fixedSize=1;" vertex="1" parent="1">
          <mxGeometry x="-150" y="300" width="250" height="80" as="geometry" />
        </mxCell>
        <mxCell id="cb20dtoZO0qenrzHvaOk-76" value="NO" style="edgeStyle=orthogonalEdgeStyle;rounded=0;orthogonalLoop=1;jettySize=auto;html=1;entryX=0.5;entryY=0;entryDx=0;entryDy=0;" edge="1" parent="1" source="cb20dtoZO0qenrzHvaOk-71" target="cb20dtoZO0qenrzHvaOk-93">
          <mxGeometry x="-0.7297" relative="1" as="geometry">
            <mxPoint as="offset" />
          </mxGeometry>
        </mxCell>
        <mxCell id="cb20dtoZO0qenrzHvaOk-71" value="&lt;font style=&quot;font-size: 16px;&quot;&gt;debt[i] - pay[j] &amp;gt;= 0?&lt;/font&gt;" style="rhombus;whiteSpace=wrap;html=1;" vertex="1" parent="1">
          <mxGeometry x="-110" y="410" width="170" height="95" as="geometry" />
        </mxCell>
        <mxCell id="cb20dtoZO0qenrzHvaOk-73" value="YES" style="edgeStyle=orthogonalEdgeStyle;rounded=0;orthogonalLoop=1;jettySize=auto;html=1;entryX=0.056;entryY=0.463;entryDx=0;entryDy=0;entryPerimeter=0;exitX=0;exitY=0.5;exitDx=0;exitDy=0;" edge="1" parent="1" source="cb20dtoZO0qenrzHvaOk-71" target="cb20dtoZO0qenrzHvaOk-70">
          <mxGeometry relative="1" as="geometry">
            <Array as="points">
              <mxPoint x="-110" y="460" />
              <mxPoint x="-250" y="460" />
              <mxPoint x="-250" y="337" />
            </Array>
          </mxGeometry>
        </mxCell>
        <mxCell id="cb20dtoZO0qenrzHvaOk-77" style="edgeStyle=orthogonalEdgeStyle;rounded=0;orthogonalLoop=1;jettySize=auto;html=1;entryX=1;entryY=0.5;entryDx=0;entryDy=0;exitX=1;exitY=0.5;exitDx=0;exitDy=0;" edge="1" parent="1" source="cb20dtoZO0qenrzHvaOk-75" target="cb20dtoZO0qenrzHvaOk-2">
          <mxGeometry relative="1" as="geometry">
            <Array as="points">
              <mxPoint x="180" y="730" />
              <mxPoint x="180" y="147" />
            </Array>
          </mxGeometry>
        </mxCell>
        <mxCell id="cb20dtoZO0qenrzHvaOk-75" value="&lt;span style=&quot;font-size: 16px;&quot;&gt;pay[j] -= debt[i]&lt;br&gt;totalCalcPay += debt[i] * (totalDaysDiffernce)&lt;br&gt;i++&lt;br&gt;&lt;br&gt;&lt;/span&gt;" style="shape=step;perimeter=stepPerimeter;whiteSpace=wrap;html=1;fixedSize=1;" vertex="1" parent="1">
          <mxGeometry x="-210" y="690" width="370" height="80" as="geometry" />
        </mxCell>
        <mxCell id="cb20dtoZO0qenrzHvaOk-78" value="750" style="text;html=1;align=center;verticalAlign=middle;whiteSpace=wrap;rounded=0;" vertex="1" parent="1">
          <mxGeometry x="200" y="131.5" width="60" height="30" as="geometry" />
        </mxCell>
        <mxCell id="cb20dtoZO0qenrzHvaOk-79" value="250" style="text;html=1;align=center;verticalAlign=middle;whiteSpace=wrap;rounded=0;" vertex="1" parent="1">
          <mxGeometry x="250" y="131.5" width="60" height="30" as="geometry" />
        </mxCell>
        <mxCell id="cb20dtoZO0qenrzHvaOk-80" value="500" style="text;html=1;align=center;verticalAlign=middle;whiteSpace=wrap;rounded=0;" vertex="1" parent="1">
          <mxGeometry x="200" y="173" width="60" height="30" as="geometry" />
        </mxCell>
        <mxCell id="cb20dtoZO0qenrzHvaOk-81" value="250" style="text;html=1;align=center;verticalAlign=middle;whiteSpace=wrap;rounded=0;" vertex="1" parent="1">
          <mxGeometry x="250" y="173" width="60" height="30" as="geometry" />
        </mxCell>
        <mxCell id="cb20dtoZO0qenrzHvaOk-82" value="0" style="text;html=1;align=center;verticalAlign=middle;whiteSpace=wrap;rounded=0;" vertex="1" parent="1">
          <mxGeometry x="200" y="223" width="60" height="30" as="geometry" />
        </mxCell>
        <mxCell id="cb20dtoZO0qenrzHvaOk-83" value="&lt;div&gt;500&lt;/div&gt;" style="text;html=1;align=center;verticalAlign=middle;whiteSpace=wrap;rounded=0;" vertex="1" parent="1">
          <mxGeometry x="250" y="223" width="60" height="30" as="geometry" />
        </mxCell>
        <mxCell id="cb20dtoZO0qenrzHvaOk-84" value="1000" style="text;html=1;align=center;verticalAlign=middle;whiteSpace=wrap;rounded=0;" vertex="1" parent="1">
          <mxGeometry x="200" y="80" width="60" height="30" as="geometry" />
        </mxCell>
        <mxCell id="cb20dtoZO0qenrzHvaOk-85" value="1000" style="text;html=1;align=center;verticalAlign=middle;whiteSpace=wrap;rounded=0;" vertex="1" parent="1">
          <mxGeometry x="310" y="80" width="60" height="30" as="geometry" />
        </mxCell>
        <mxCell id="cb20dtoZO0qenrzHvaOk-86" value="500" style="text;html=1;align=center;verticalAlign=middle;resizable=0;points=[];autosize=1;strokeColor=none;fillColor=none;" vertex="1" parent="1">
          <mxGeometry x="320" y="128" width="40" height="30" as="geometry" />
        </mxCell>
        <mxCell id="cb20dtoZO0qenrzHvaOk-87" value="500" style="text;html=1;align=center;verticalAlign=middle;resizable=0;points=[];autosize=1;strokeColor=none;fillColor=none;" vertex="1" parent="1">
          <mxGeometry x="380" y="128" width="40" height="30" as="geometry" />
        </mxCell>
        <mxCell id="cb20dtoZO0qenrzHvaOk-88" value="0" style="text;html=1;align=center;verticalAlign=middle;resizable=0;points=[];autosize=1;strokeColor=none;fillColor=none;" vertex="1" parent="1">
          <mxGeometry x="325" y="168" width="30" height="30" as="geometry" />
        </mxCell>
        <mxCell id="cb20dtoZO0qenrzHvaOk-89" value="500" style="text;html=1;align=center;verticalAlign=middle;resizable=0;points=[];autosize=1;strokeColor=none;fillColor=none;" vertex="1" parent="1">
          <mxGeometry x="380" y="168" width="40" height="30" as="geometry" />
        </mxCell>
        <mxCell id="cb20dtoZO0qenrzHvaOk-95" value="NO" style="edgeStyle=orthogonalEdgeStyle;rounded=0;orthogonalLoop=1;jettySize=auto;html=1;entryX=0.5;entryY=0;entryDx=0;entryDy=0;" edge="1" parent="1" source="cb20dtoZO0qenrzHvaOk-93" target="cb20dtoZO0qenrzHvaOk-75">
          <mxGeometry relative="1" as="geometry" />
        </mxCell>
        <mxCell id="cb20dtoZO0qenrzHvaOk-96" value="YES" style="edgeStyle=orthogonalEdgeStyle;rounded=0;orthogonalLoop=1;jettySize=auto;html=1;" edge="1" parent="1" source="cb20dtoZO0qenrzHvaOk-93">
          <mxGeometry relative="1" as="geometry">
            <mxPoint x="-250" y="830" as="targetPoint" />
          </mxGeometry>
        </mxCell>
        <mxCell id="cb20dtoZO0qenrzHvaOk-93" value="&lt;font style=&quot;font-size: 16px;&quot;&gt;if J === payArr.length&lt;/font&gt;" style="rhombus;whiteSpace=wrap;html=1;" vertex="1" parent="1">
          <mxGeometry x="-150" y="556.5" width="250" height="95" as="geometry" />
        </mxCell>
        <mxCell id="cb20dtoZO0qenrzHvaOk-97" value="CALC SHOTEF" style="shape=tape;whiteSpace=wrap;html=1;" vertex="1" parent="1">
          <mxGeometry x="-340" y="830" width="120" height="100" as="geometry" />
        </mxCell>
      </root>
    </mxGraphModel>
  </diagram>
</mxfile>
